<svg width="13" height="10" viewBox="0 0 13 10" fill="none" xmlns="http://www.w3.org/2000/svg">
<path fill-rule="evenodd" clip-rule="evenodd" d="M10.4545 0.455054C10.6644 0.246962 10.9478 0.129848 11.2434 0.129033C11.539 0.128217 11.823 0.243765 12.0341 0.450696C12.2452 0.657627 12.3663 0.939314 12.3713 1.23486C12.3764 1.5304 12.2649 1.81605 12.061 2.03005L6.073 9.51506C5.97009 9.6259 5.84588 9.71486 5.7078 9.7766C5.56972 9.83835 5.42061 9.87162 5.26938 9.87442C5.11815 9.87722 4.96791 9.84949 4.82764 9.7929C4.68737 9.73631 4.55995 9.65202 4.453 9.54505L0.485504 5.57605C0.374974 5.47306 0.286321 5.34886 0.224833 5.21086C0.163345 5.07286 0.130282 4.92389 0.127616 4.77284C0.124951 4.62178 0.152739 4.47174 0.20932 4.33166C0.265902 4.19158 0.350119 4.06433 0.456947 3.9575C0.563775 3.85067 0.691025 3.76645 0.831108 3.70987C0.97119 3.65329 1.12123 3.6255 1.27229 3.62817C1.42334 3.63083 1.57231 3.6639 1.71031 3.72538C1.84831 3.78687 1.97251 3.87552 2.0755 3.98605L5.2165 7.12555L10.426 0.488055C10.4353 0.476435 10.4453 0.465413 10.456 0.455054H10.4545Z" fill="#6C757D"/>
</svg>
